<?xml version="1.0" encoding="UTF-8"?>
<svg id="Capa_1" xmlns="http://www.w3.org/2000/svg" version="1.1" viewBox="0 0 547 353">
  <!-- Generator: Adobe Illustrator 30.0.0, SVG Export Plug-In . SVG Version: 2.1.1 Build 123)  -->
  <defs>
    <style>
      .st0 {
        fill: #fff;
      }

      .st0, .st1 {
        stroke: #fff;
        stroke-miterlimit: 10;
        stroke-width: 3px;
      }

      .st1 {
        fill: none;
      }
    </style>
  </defs>
  <g>
    <path class="st1" d="M119.2,80.1h-56.9v-18.3c.2-2.8.3-5.7,0-8.7-1.8-20.3-15.5-34.3-22.2-40.2v39.4h11.1-11.8"/>
    <path class="st1" d="M40.9,53v10.6H6.5v83.6c8.3,29.7,24.1,86.1,24.9,89s1.1,4.7,2.5,7.3c5.2,9.8,15.7,12.6,18.3,13.2"/>
    <polyline class="st1" points="477.8 119.7 515.1 119.7 515.1 98.7 477.8 98.7"/>
    <rect class="st1" x="515.1" y="81.2" width="27" height="57.3" rx="8.5" ry="8.5"/>
    <circle class="st1" cx="461.9" cy="109.2" r="5.9"/>
    <rect class="st1" x="167.3" y="43.2" width="33.3" height="14.7" rx="4.6" ry="4.6"/>
    <line class="st1" x1="178.9" y1="65.5" x2="178.9" y2="58.5"/>
    <line class="st1" x1="188.4" y1="65.5" x2="188.4" y2="58.5"/>
    <path class="st1" d="M188.4,58.5v6.6-6.6Z"/>
    <line class="st1" x1="486.3" y1="118.5" x2="479.5" y2="100.5"/>
    <line class="st1" x1="492.7" y1="119.7" x2="485.6" y2="100"/>
    <line class="st1" x1="498.5" y1="119.4" x2="491.5" y2="99.6"/>
    <line class="st1" x1="504.5" y1="119.4" x2="497.5" y2="99.6"/>
    <line class="st1" x1="510.5" y1="119.7" x2="502.5" y2="98"/>
    <line class="st1" x1="515.1" y1="116.4" x2="508.3" y2="98.3"/>
    <path class="st1" d="M516.5,129.4h18.9v8.4"/>
    <path class="st1" d="M516.7,116.4h18.7"/>
    <path class="st1" d="M516.7,123.2h18.7"/>
    <path class="st1" d="M516.6,109.1h18.7"/>
    <path class="st1" d="M516.7,102.8h18.7"/>
    <path class="st1" d="M515.6,95.5h18.7"/>
    <path class="st1" d="M516.4,89.4h18.9v-8.4"/>
    <line class="st1" x1="275.2" y1="128.4" x2="459" y2="128.4"/>
    <line class="st1" x1="262.7" y1="91.7" x2="459.3" y2="91.7"/>
    <path class="st1" d="M121.7,64.1h-24.9v-11.6h2V12.9s-8.1,2-15.1,20.2-5.9,28.4-5.9,28.4v17"/>
    <path class="st1" d="M266.7,138.5c70.4,0,140.7,0,211.1-.1v-58.4h-218.7v-13.5H120.5v25.8c46.1,0,92.3,0,138.4,0,0-3.6,0-7.1,0-10.7"/>
    <path class="st1" d="M52.9,258.6v-84.7c-1.3-1.3-2.7-2.7-4-4v-33.3h31.5v33.3c-1.3,1.3-2.6,2.6-4,4v83.9c2.8-1,6.2-2.5,9.8-5.3,8.4-6.5,11.5-15,12.6-18.8,7.4-28.5,14.8-56.9,22.1-85.4h145.7v-24.2H80.4c0,3.9,0,7.8,0,11.7"/>
  </g>
  <g>
    <path class="st0" d="M182.9,226.6c-.4,2.5-.8,6.1-1.3,10.6-.5,4.5-.9,8-1,10.5-6.4,1.4-12,2.1-17,2.1s-9.3-.9-13.5-2.6-8-4.6-11.4-8.6c-3.5-4-5.9-8.7-7.4-14.1-1.5-5.4-2.2-11.4-2.2-18.1s1-14.8,3-21c2-6.2,4.9-11.4,8.7-15.6,3.8-4.2,7.9-7.1,12.4-8.9,4.5-1.8,9.1-2.7,13.9-2.7s9.9.8,16.3,2.5v5.4c.1,2.4.2,5,.4,7.8l.3,7.4c-3.5-1.2-6.3-2-8.5-2.5s-4.2-.6-6-.6c-4,0-7.6,1.2-10.9,3.5s-5.7,5.7-7.6,10.1-2.8,9.4-2.8,14.7.8,9.1,2.3,12.6c1.5,3.5,3.6,6.2,6.3,8.1s5.9,2.9,9.8,2.9,4.4-.2,6.9-.7c2.5-.5,5.6-1.5,9.4-2.9h0Z"/>
    <path class="st0" d="M183.5,248.2l3.7-9.3,23.1-63,2.5-7c.7-2.1,1.7-5,3-8.9,5.2,0,9.1.1,11.5.1,4.2,0,8.1,0,11.6-.1l6.5,27,13.2,51.9,2.6,9.4c-5.1,0-8.3-.1-9.4-.1-2.5,0-6.2,0-11,.1-1.3-7.1-3.2-15.5-5.7-25.1h-22.5c-2.6,7.6-5.3,16-8,25.1-5.5,0-8.9-.1-10.2-.1-2.3,0-5.9,0-11,.1h0ZM218,204.2h13.9c-3.5-15.2-5.3-23.6-5.7-25.1-2,6.3-3.6,11.5-5,15.5l-3.2,9.5h0Z"/>
    <path class="st0" d="M265.4,248.2c.8-10.2,1.3-18.5,1.6-24.9.6-11.7,1.1-23.4,1.4-35,.3-11.6.5-21,.5-28.4,4,0,7.6.1,10.8.1s5.1,0,9.1-.1l-1.1,23.4-1.3,36.6-.2,9c5.1.1,8.5.2,10,.2,7.8,0,13.8-.1,17.8-.5l-1,19.5c-7.8,0-15.3-.1-22.4-.1s-18,0-25.2.1h0Z"/>
    <path class="st0" d="M319.6,248.2c1.7-34.6,2.6-61.2,2.6-79.9v-8.3c5.2,0,8.6.1,10.4.1s4,0,9.6-.1c-.5,9.7-1,18.9-1.3,27.5-.4,12.1-.7,23.4-.9,33.9s-.3,19.5-.3,26.9h-9.1c-1.8-.1-5.4,0-11,0h0Z"/>
    <path class="st0" d="M350.8,248.2c.6-9.5,1-16.9,1.2-22.4.3-7.4.6-17.6.9-30.5s.4-22,.4-27.4,0-4.6,0-8c4,.1,7.1.2,9.4.2s7-.1,11.3-.3c4.3-.2,8-.3,11.1-.3s6.4.1,8,.5c2.1.4,3.9,1.1,5.5,2.1,1.6,1,2.9,2.2,3.9,3.7,1.2,1.7,2.1,3.8,2.7,6.2.7,2.8,1.1,5.7,1.1,8.9s-.2,4.8-.7,7c-.4,2.2-1,4.2-1.8,6-.8,1.8-1.7,3.2-2.7,4.4-1,1.2-1.9,2.1-2.9,2.7s-2.2,1.3-3.8,1.9c1.6.4,2.8.8,3.8,1.3,1,.5,2,1.3,3.1,2.4s2.1,2.5,2.9,4.2,1.5,3.6,1.9,5.8c.4,2.1.7,4.4.7,6.8s-.4,6.4-1.1,9.2c-.7,2.9-1.8,5.4-3.1,7.4-1.1,1.8-2.6,3.3-4.4,4.5s-3.7,2.1-5.6,2.6c-1.5.4-4.4.6-8.5.8-4.1.2-8.4.3-13,.3h-11.7c0,0-8.7,0-8.7,0h0ZM369.7,230.4h8.6c2.3,0,3.9-.2,5-.6,1.3-.5,2.3-1.1,3-1.9.7-.8,1.2-1.8,1.6-3.2.4-1.3.6-2.8.6-4.5s-.2-2.7-.5-3.8-.8-2-1.5-2.7c-.7-.7-1.5-1.3-2.4-1.6-1-.3-2.4-.5-4.5-.5h-9.4l-.5,18.6h0ZM370.7,194.3h6.3c2.1,0,3.6,0,4.5-.2.9-.1,1.7-.4,2.6-.8.8-.4,1.6-1,2.2-1.9s1-1.9,1.3-3c.2-1.1.4-2.2.4-3.4,0-1.6-.3-3-.8-4.3s-1.4-2.2-2.5-2.8c-1.2-.6-2.9-.9-5.3-.9h-8l-.6,17.3h0Z"/>
    <path class="st0" d="M415.4,248.2c.6-7.6,1-14.4,1.3-20.5s.6-13.1.8-21.1.4-16.5.5-25.4.2-16,.2-21.2c3.7.1,6.7.2,9,.2s5.3-.1,8.7-.3,6.8-.3,10-.3,7.2.2,10.2.6c2.2.3,4.3.9,6.1,1.9s3.4,2.1,4.6,3.5,2.3,2.9,3.1,4.6,1.5,3.6,1.9,5.9c.5,2.3.7,4.7.7,7.3s-.2,5.6-.8,8.1-1.3,4.9-2.4,7.1c-1.1,2.2-2.5,4.1-4.1,5.8s-4,3.3-6.9,5l2.3,8.2c.7,2.3,1.3,4.6,2.1,7l6,18.9c.3.8.7,2.4,1.4,4.9-4.9,0-8.2-.1-9.9-.1s-5.7,0-10.5.1c-.5-2.2-1.3-6.4-2.6-12.5-.5-2.5-.9-4.5-1.3-5.9-.7-3.1-1.8-7.4-3.2-12.9l-4.6-18.3c1.6.4,3.2.6,4.7.6s4.1-.5,5.9-1.4c1.8-1,3.1-2.4,4-4.4.9-2,1.4-4.1,1.4-6.3s-.3-3.5-1-4.9c-.7-1.4-1.8-2.5-3.2-3.1-1.5-.7-3.7-1-6.8-1s-2.1,0-3.2.1c-1.1,0-2.4.1-3.9.2-.4,8.8-.7,19.6-1,32.3-.3,12.7-.5,25.2-.6,37.4-5,0-8.2-.1-9.7-.1s-4.8,0-9.3.1h0Z"/>
    <path class="st0" d="M479.5,248.2c.8-11.1,1.3-20.4,1.6-27.9s.7-17.5,1-29.9.5-20.7.5-24.7v-5.7c7,0,15.5.1,25.4.1s17.3,0,24.3-.1v2.1c-.1.5-.2,2.4-.3,5.6l-.3,7c0,1.5,0,3,0,4.6-5.7-.3-10.6-.5-14.5-.5s-7.2,0-8.7,0-3.8.1-7,.3l-.5,14.9c3.5.1,7.6.2,12.3.2s6.1-.1,13.3-.5c-.3,5.5-.6,12.1-.8,19.7-5.2,0-9.1-.1-11.9-.1-4.1,0-8.7.1-13.8.5l-.5,15.7h5.1c1.5,0,4.7,0,9.4-.2l9.2-.3c1.4,0,3.7-.2,6.9-.5-.4,6.4-.7,13-.9,19.8-7.3,0-15.2-.1-23.9-.1h-19.6c0,0-6.3.1-6.3.1h0Z"/>
  </g>
</svg>